<svg width="127" height="78" viewBox="0 0 127 78" fill="none" xmlns="http://www.w3.org/2000/svg">
<g filter="url(#filter0_ddd_202_154)">
<rect x="11" width="105" height="55" rx="6" fill="#484848"/>
<path d="M59.4664 36.9772C59.078 36.7188 58.7338 36.3995 58.447 36.0316C58.1315 35.6519 57.8391 35.2534 57.5716 34.8385C56.9437 33.9187 56.4513 32.9133 56.1095 31.8534C55.6988 30.6221 55.5 29.442 55.5 28.2877C55.5 26.9986 55.7789 25.8732 56.3243 24.9276C56.7286 24.1885 57.3231 23.5709 58.0462 23.1386C58.747 22.7034 59.5522 22.4652 60.377 22.4491C60.6657 22.4491 60.9766 22.491 61.3065 22.571C61.5436 22.6381 61.8323 22.744 62.185 22.8758C62.6338 23.0488 62.8807 23.1546 62.9644 23.1805C63.2273 23.2765 63.4483 23.3184 63.6219 23.3184C63.7536 23.3184 63.9396 23.2765 64.1507 23.2125C64.2695 23.1706 64.4936 23.0968 64.8144 22.9595C65.132 22.8438 65.382 22.7446 65.5808 22.6708C65.8855 22.5809 66.1804 22.4978 66.4433 22.4559C66.7549 22.4068 67.0712 22.3938 67.3858 22.4171C67.931 22.4528 68.468 22.5683 68.9796 22.76C69.8163 23.0968 70.4928 23.6225 70.9964 24.3699C70.7836 24.5011 70.5838 24.6524 70.3999 24.8217C69.9995 25.1767 69.6584 25.5934 69.3896 26.0561C69.0383 26.6883 68.8562 27.4006 68.8608 28.1239C68.8738 29.0123 69.1015 29.7947 69.5503 30.4713C69.8803 30.9727 70.3091 31.4015 70.8105 31.7315C71.0672 31.9045 71.2882 32.0233 71.5 32.1033C71.4009 32.4111 71.295 32.7091 71.17 33.0046C70.8866 33.6672 70.5431 34.3025 70.1438 34.9025C69.788 35.4191 69.5091 35.8038 69.2973 36.0599C68.9673 36.4508 68.6497 36.7494 68.3289 36.9575C67.9762 37.1914 67.5594 37.3164 67.1359 37.3164C66.849 37.3274 66.5622 37.2927 66.2863 37.2136C66.0493 37.1336 65.8147 37.0468 65.5839 36.9476C65.3439 36.8374 65.0964 36.7442 64.8433 36.6688C64.2176 36.5081 63.5616 36.507 62.9355 36.6657C62.6788 36.7396 62.4319 36.8257 62.1881 36.9316C61.8452 37.0757 61.6174 37.1723 61.4857 37.2136C61.2228 37.2905 60.9501 37.3386 60.6743 37.3546C60.2477 37.3546 59.85 37.2327 59.456 36.9858L59.4664 36.9772ZM65.0932 21.8237C64.5355 22.1025 64.003 22.2214 63.4741 22.1826C63.391 21.6501 63.4741 21.1052 63.6952 20.5087C63.8833 20.0033 64.1613 19.5361 64.5158 19.1297C64.8901 18.7019 65.3443 18.3512 65.8529 18.0973C66.3947 17.8184 66.9112 17.6676 67.4049 17.6454C67.4689 18.2032 67.4049 18.7517 67.1999 19.3446C67.0102 19.8686 66.7327 20.3566 66.3793 20.7876C66.0185 21.216 65.5759 21.5681 65.0772 21.8231L65.0932 21.8237Z" fill="white"/>
</g>
<defs>
<filter id="filter0_ddd_202_154" x="0.982759" y="0" width="125.034" height="77.5388" filterUnits="userSpaceOnUse" color-interpolation-filters="sRGB">
<feFlood flood-opacity="0" result="BackgroundImageFix"/>
<feColorMatrix in="SourceAlpha" type="matrix" values="0 0 0 0 0 0 0 0 0 0 0 0 0 0 0 0 0 0 127 0" result="hardAlpha"/>
<feOffset dy="2.76726"/>
<feGaussianBlur stdDeviation="1.1069"/>
<feColorMatrix type="matrix" values="0 0 0 0 0 0 0 0 0 0 0 0 0 0 0 0 0 0 0.0196802 0"/>
<feBlend mode="normal" in2="BackgroundImageFix" result="effect1_dropShadow_202_154"/>
<feColorMatrix in="SourceAlpha" type="matrix" values="0 0 0 0 0 0 0 0 0 0 0 0 0 0 0 0 0 0 127 0" result="hardAlpha"/>
<feOffset dy="6.6501"/>
<feGaussianBlur stdDeviation="2.66004"/>
<feColorMatrix type="matrix" values="0 0 0 0 0 0 0 0 0 0 0 0 0 0 0 0 0 0 0.0282725 0"/>
<feBlend mode="normal" in2="effect1_dropShadow_202_154" result="effect2_dropShadow_202_154"/>
<feColorMatrix in="SourceAlpha" type="matrix" values="0 0 0 0 0 0 0 0 0 0 0 0 0 0 0 0 0 0 127 0" result="hardAlpha"/>
<feOffset dy="12.5216"/>
<feGaussianBlur stdDeviation="5.00862"/>
<feColorMatrix type="matrix" values="0 0 0 0 0 0 0 0 0 0 0 0 0 0 0 0 0 0 0.035 0"/>
<feBlend mode="normal" in2="effect2_dropShadow_202_154" result="effect3_dropShadow_202_154"/>
<feBlend mode="normal" in="SourceGraphic" in2="effect3_dropShadow_202_154" result="shape"/>
</filter>
</defs>
</svg>
